<?xml version="1.0" encoding="UTF-8" standalone="no"?>
<!DOCTYPE svg PUBLIC "-//W3C//DTD SVG 1.1//EN"
 "http://www.w3.org/Graphics/SVG/1.1/DTD/svg11.dtd">
<!-- Generated by graphviz version 12.1.0 (20240811.2233)
 -->
<!-- Title: G Pages: 1 -->
<svg width="421pt" height="100pt"
 viewBox="0.00 0.00 421.25 100.00" xmlns="http://www.w3.org/2000/svg" xmlns:xlink="http://www.w3.org/1999/xlink">
<g id="graph0" class="graph" transform="scale(1 1) rotate(0) translate(4 96)">
<title>G</title>
<polygon fill="white" stroke="none" points="-4,4 -4,-96 417.25,-96 417.25,4 -4,4"/>
<!-- 100 -->
<g id="node1" class="node">
<title>100</title>
<polygon fill="none" stroke="black" points="266.25,-27.5 266.25,-63.5 413.25,-63.5 413.25,-27.5 266.25,-27.5"/>
<text text-anchor="middle" x="276.12" y="-40.7" font-family="Times New Roman,serif" font-size="14.00"> </text>
<polyline fill="none" stroke="black" points="286,-28 286,-63.5"/>
<text text-anchor="middle" x="319.12" y="-40.7" font-family="Times New Roman,serif" font-size="14.00">data 30.0</text>
<polyline fill="none" stroke="black" points="352.25,-28 352.25,-63.5"/>
<text text-anchor="middle" x="382.75" y="-40.7" font-family="Times New Roman,serif" font-size="14.00">grad 0.0</text>
</g>
<!-- 100* -->
<g id="node2" class="node">
<title>100*</title>
<ellipse fill="none" stroke="black" cx="203.25" cy="-45.5" rx="27" ry="18"/>
<text text-anchor="middle" x="203.25" y="-40.45" font-family="Times New Roman,serif" font-size="14.00">*</text>
</g>
<!-- 100*&#45;&gt;100 -->
<g id="edge1" class="edge">
<title>100*&#45;&gt;100</title>
<path fill="none" stroke="black" d="M230.5,-45.5C237.68,-45.5 245.86,-45.5 254.44,-45.5"/>
<polygon fill="black" stroke="black" points="254.38,-49 264.38,-45.5 254.38,-42 254.38,-49"/>
</g>
<!-- 60 -->
<g id="node3" class="node">
<title>60</title>
<polygon fill="none" stroke="black" points="0,-55.5 0,-91.5 140.25,-91.5 140.25,-55.5 0,-55.5"/>
<text text-anchor="middle" x="9.88" y="-68.7" font-family="Times New Roman,serif" font-size="14.00"> </text>
<polyline fill="none" stroke="black" points="19.75,-56 19.75,-91.5"/>
<text text-anchor="middle" x="49.5" y="-68.7" font-family="Times New Roman,serif" font-size="14.00">data 5.0</text>
<polyline fill="none" stroke="black" points="79.25,-56 79.25,-91.5"/>
<text text-anchor="middle" x="109.75" y="-68.7" font-family="Times New Roman,serif" font-size="14.00">grad 0.0</text>
</g>
<!-- 60&#45;&gt;100* -->
<g id="edge2" class="edge">
<title>60&#45;&gt;100*</title>
<path fill="none" stroke="black" d="M140.53,-58.68C149.36,-56.79 158.1,-54.93 166.1,-53.22"/>
<polygon fill="black" stroke="black" points="166.69,-56.67 175.74,-51.16 165.23,-49.83 166.69,-56.67"/>
</g>
<!-- 80 -->
<g id="node4" class="node">
<title>80</title>
<polygon fill="none" stroke="black" points="0,-0.5 0,-36.5 140.25,-36.5 140.25,-0.5 0,-0.5"/>
<text text-anchor="middle" x="9.88" y="-13.7" font-family="Times New Roman,serif" font-size="14.00"> </text>
<polyline fill="none" stroke="black" points="19.75,-1 19.75,-36.5"/>
<text text-anchor="middle" x="49.5" y="-13.7" font-family="Times New Roman,serif" font-size="14.00">data 6.0</text>
<polyline fill="none" stroke="black" points="79.25,-1 79.25,-36.5"/>
<text text-anchor="middle" x="109.75" y="-13.7" font-family="Times New Roman,serif" font-size="14.00">grad 0.0</text>
</g>
<!-- 80&#45;&gt;100* -->
<g id="edge3" class="edge">
<title>80&#45;&gt;100*</title>
<path fill="none" stroke="black" d="M140.53,-32.79C149.28,-34.59 157.94,-36.38 165.88,-38.01"/>
<polygon fill="black" stroke="black" points="164.94,-41.39 175.44,-39.98 166.35,-34.53 164.94,-41.39"/>
</g>
</g>
</svg>
