<?xml version="1.0" encoding="UTF-8" standalone="no"?>
<!DOCTYPE svg PUBLIC "-//W3C//DTD SVG 1.1//EN"
 "http://www.w3.org/Graphics/SVG/1.1/DTD/svg11.dtd">
<!-- Generated by graphviz version 12.1.0 (20240811.2233)
 -->
<!-- Title: G Pages: 1 -->
<svg width="2979pt" height="236pt"
 viewBox="0.00 0.00 2978.75 236.00" xmlns="http://www.w3.org/2000/svg" xmlns:xlink="http://www.w3.org/1999/xlink">
<g id="graph0" class="graph" transform="scale(1 1) rotate(0) translate(4 232)">
<title>G</title>
<polygon fill="white" stroke="none" points="-4,4 -4,-232 2974.75,-232 2974.75,4 -4,4"/>
<!-- 400 -->
<g id="node1" class="node">
<title>400</title>
<polygon fill="none" stroke="black" points="2807.25,-135.5 2807.25,-171.5 2970.75,-171.5 2970.75,-135.5 2807.25,-135.5"/>
<text text-anchor="middle" x="2818.62" y="-148.7" font-family="Times New Roman,serif" font-size="14.00">o</text>
<polyline fill="none" stroke="black" points="2830,-136 2830,-171.5"/>
<text text-anchor="middle" x="2869.88" y="-148.7" font-family="Times New Roman,serif" font-size="14.00">data 0.7071</text>
<polyline fill="none" stroke="black" points="2909.75,-136 2909.75,-171.5"/>
<text text-anchor="middle" x="2940.25" y="-148.7" font-family="Times New Roman,serif" font-size="14.00">grad 1.0</text>
</g>
<!-- 400* -->
<g id="node2" class="node">
<title>400*</title>
<ellipse fill="none" stroke="black" cx="2744.25" cy="-153.5" rx="27" ry="18"/>
<text text-anchor="middle" x="2744.25" y="-148.45" font-family="Times New Roman,serif" font-size="14.00">*</text>
</g>
<!-- 400*&#45;&gt;400 -->
<g id="edge1" class="edge">
<title>400*&#45;&gt;400</title>
<path fill="none" stroke="black" d="M2771.43,-153.5C2778.68,-153.5 2786.98,-153.5 2795.74,-153.5"/>
<polygon fill="black" stroke="black" points="2795.52,-157 2805.52,-153.5 2795.52,-150 2795.52,-157"/>
</g>
<!-- 340 -->
<g id="node3" class="node">
<title>340</title>
<polygon fill="none" stroke="black" points="2454,-161.5 2454,-197.5 2681.25,-197.5 2681.25,-161.5 2454,-161.5"/>
<text text-anchor="middle" x="2487.12" y="-174.7" font-family="Times New Roman,serif" font-size="14.00">unnamed</text>
<polyline fill="none" stroke="black" points="2520.25,-162 2520.25,-197.5"/>
<text text-anchor="middle" x="2560.12" y="-174.7" font-family="Times New Roman,serif" font-size="14.00">data 0.1464</text>
<polyline fill="none" stroke="black" points="2600,-162 2600,-197.5"/>
<text text-anchor="middle" x="2640.62" y="-174.7" font-family="Times New Roman,serif" font-size="14.00">grad 4.8284</text>
</g>
<!-- 340&#45;&gt;400* -->
<g id="edge12" class="edge">
<title>340&#45;&gt;400*</title>
<path fill="none" stroke="black" d="M2681.68,-162.67C2690.38,-161.37 2698.69,-160.13 2706.25,-159.01"/>
<polygon fill="black" stroke="black" points="2706.57,-162.5 2715.94,-157.57 2705.53,-155.58 2706.57,-162.5"/>
</g>
<!-- 340**&#45;1 -->
<g id="node4" class="node">
<title>340**&#45;1</title>
<ellipse fill="none" stroke="black" cx="2304.38" cy="-181.5" rx="27.81" ry="18"/>
<text text-anchor="middle" x="2304.38" y="-176.45" font-family="Times New Roman,serif" font-size="14.00">**&#45;1</text>
</g>
<!-- 340**&#45;1&#45;&gt;340 -->
<g id="edge2" class="edge">
<title>340**&#45;1&#45;&gt;340</title>
<path fill="none" stroke="black" d="M2332.35,-181.29C2358.74,-181.09 2400.89,-180.77 2442.2,-180.45"/>
<polygon fill="black" stroke="black" points="2442.05,-183.95 2452.02,-180.38 2442,-176.95 2442.05,-183.95"/>
</g>
<!-- 360 -->
<g id="node5" class="node">
<title>360</title>
<polygon fill="none" stroke="black" points="1923,-163.5 1923,-199.5 2154.75,-199.5 2154.75,-163.5 1923,-163.5"/>
<text text-anchor="middle" x="1956.12" y="-176.7" font-family="Times New Roman,serif" font-size="14.00">unnamed</text>
<polyline fill="none" stroke="black" points="1989.25,-164 1989.25,-199.5"/>
<text text-anchor="middle" x="2029.12" y="-176.7" font-family="Times New Roman,serif" font-size="14.00">data 6.8284</text>
<polyline fill="none" stroke="black" points="2069,-164 2069,-199.5"/>
<text text-anchor="middle" x="2111.88" y="-176.7" font-family="Times New Roman,serif" font-size="14.00">grad &#45;0.1036</text>
</g>
<!-- 360&#45;&gt;340**&#45;1 -->
<g id="edge13" class="edge">
<title>360&#45;&gt;340**&#45;1</title>
<path fill="none" stroke="black" d="M2155.07,-181.5C2194.5,-181.5 2235.95,-181.5 2264.97,-181.5"/>
<polygon fill="black" stroke="black" points="2264.71,-185 2274.71,-181.5 2264.71,-178 2264.71,-185"/>
</g>
<!-- 360+ -->
<g id="node6" class="node">
<title>360+</title>
<ellipse fill="none" stroke="black" cx="1860" cy="-181.5" rx="27" ry="18"/>
<text text-anchor="middle" x="1860" y="-176.45" font-family="Times New Roman,serif" font-size="14.00">+</text>
</g>
<!-- 360+&#45;&gt;360 -->
<g id="edge3" class="edge">
<title>360+&#45;&gt;360</title>
<path fill="none" stroke="black" d="M1887.48,-181.5C1894.53,-181.5 1902.63,-181.5 1911.34,-181.5"/>
<polygon fill="black" stroke="black" points="1911.15,-185 1921.15,-181.5 1911.15,-178 1911.15,-185"/>
</g>
<!-- 380 -->
<g id="node7" class="node">
<title>380</title>
<polygon fill="none" stroke="black" points="1582.88,-191.5 1582.88,-227.5 1783.88,-227.5 1783.88,-191.5 1582.88,-191.5"/>
<text text-anchor="middle" x="1616" y="-204.7" font-family="Times New Roman,serif" font-size="14.00">unnamed</text>
<polyline fill="none" stroke="black" points="1649.12,-192 1649.12,-227.5"/>
<text text-anchor="middle" x="1673.62" y="-204.7" font-family="Times New Roman,serif" font-size="14.00">data 1</text>
<polyline fill="none" stroke="black" points="1698.12,-192 1698.12,-227.5"/>
<text text-anchor="middle" x="1741" y="-204.7" font-family="Times New Roman,serif" font-size="14.00">grad &#45;0.1036</text>
</g>
<!-- 380&#45;&gt;360+ -->
<g id="edge15" class="edge">
<title>380&#45;&gt;360+</title>
<path fill="none" stroke="black" d="M1784.18,-193.5C1797.68,-191.33 1810.77,-189.23 1822.12,-187.41"/>
<polygon fill="black" stroke="black" points="1822.46,-190.9 1831.78,-185.86 1821.35,-183.99 1822.46,-190.9"/>
</g>
<!-- 280 -->
<g id="node8" class="node">
<title>280</title>
<polygon fill="none" stroke="black" points="1569.75,-136.5 1569.75,-172.5 1797,-172.5 1797,-136.5 1569.75,-136.5"/>
<text text-anchor="middle" x="1602.88" y="-149.7" font-family="Times New Roman,serif" font-size="14.00">unnamed</text>
<polyline fill="none" stroke="black" points="1636,-137 1636,-172.5"/>
<text text-anchor="middle" x="1675.88" y="-149.7" font-family="Times New Roman,serif" font-size="14.00">data 5.8284</text>
<polyline fill="none" stroke="black" points="1715.75,-137 1715.75,-172.5"/>
<text text-anchor="middle" x="1756.38" y="-149.7" font-family="Times New Roman,serif" font-size="14.00">grad 0.0429</text>
</g>
<!-- 280&#45;&gt;360+ -->
<g id="edge14" class="edge">
<title>280&#45;&gt;360+</title>
<path fill="none" stroke="black" d="M1797.43,-171.98C1806.13,-173.32 1814.44,-174.61 1822,-175.78"/>
<polygon fill="black" stroke="black" points="1821.27,-179.21 1831.69,-177.28 1822.34,-172.29 1821.27,-179.21"/>
</g>
<!-- 320+ -->
<g id="node27" class="node">
<title>320+</title>
<ellipse fill="none" stroke="black" cx="1860" cy="-126.5" rx="27" ry="18"/>
<text text-anchor="middle" x="1860" y="-121.45" font-family="Times New Roman,serif" font-size="14.00">+</text>
</g>
<!-- 280&#45;&gt;320+ -->
<g id="edge27" class="edge">
<title>280&#45;&gt;320+</title>
<path fill="none" stroke="black" d="M1797.43,-136.37C1806.21,-134.96 1814.61,-133.62 1822.22,-132.4"/>
<polygon fill="black" stroke="black" points="1822.67,-135.87 1831.99,-130.83 1821.57,-128.96 1822.67,-135.87"/>
</g>
<!-- 280exp -->
<g id="node9" class="node">
<title>280exp</title>
<ellipse fill="none" stroke="black" cx="1506.75" cy="-154.5" rx="27" ry="18"/>
<text text-anchor="middle" x="1506.75" y="-149.45" font-family="Times New Roman,serif" font-size="14.00">exp</text>
</g>
<!-- 280exp&#45;&gt;280 -->
<g id="edge4" class="edge">
<title>280exp&#45;&gt;280</title>
<path fill="none" stroke="black" d="M1533.89,-154.5C1540.98,-154.5 1549.16,-154.5 1557.95,-154.5"/>
<polygon fill="black" stroke="black" points="1557.86,-158 1567.86,-154.5 1557.86,-151 1557.86,-158"/>
</g>
<!-- 260 -->
<g id="node10" class="node">
<title>260</title>
<polygon fill="none" stroke="black" points="1230,-136.5 1230,-172.5 1443.75,-172.5 1443.75,-136.5 1230,-136.5"/>
<text text-anchor="middle" x="1263.12" y="-149.7" font-family="Times New Roman,serif" font-size="14.00">unnamed</text>
<polyline fill="none" stroke="black" points="1296.25,-137 1296.25,-172.5"/>
<text text-anchor="middle" x="1336.12" y="-149.7" font-family="Times New Roman,serif" font-size="14.00">data 1.7627</text>
<polyline fill="none" stroke="black" points="1376,-137 1376,-172.5"/>
<text text-anchor="middle" x="1409.88" y="-149.7" font-family="Times New Roman,serif" font-size="14.00">grad 0.25</text>
</g>
<!-- 260&#45;&gt;280exp -->
<g id="edge16" class="edge">
<title>260&#45;&gt;280exp</title>
<path fill="none" stroke="black" d="M1444.19,-154.5C1452.63,-154.5 1460.74,-154.5 1468.16,-154.5"/>
<polygon fill="black" stroke="black" points="1468.02,-158 1478.02,-154.5 1468.02,-151 1468.02,-158"/>
</g>
<!-- 260* -->
<g id="node11" class="node">
<title>260*</title>
<ellipse fill="none" stroke="black" cx="1167" cy="-154.5" rx="27" ry="18"/>
<text text-anchor="middle" x="1167" y="-149.45" font-family="Times New Roman,serif" font-size="14.00">*</text>
</g>
<!-- 260*&#45;&gt;260 -->
<g id="edge5" class="edge">
<title>260*&#45;&gt;260</title>
<path fill="none" stroke="black" d="M1194.23,-154.5C1201.36,-154.5 1209.57,-154.5 1218.37,-154.5"/>
<polygon fill="black" stroke="black" points="1218.28,-158 1228.28,-154.5 1218.28,-151 1218.28,-158"/>
</g>
<!-- 240 -->
<g id="node12" class="node">
<title>240</title>
<polygon fill="none" stroke="black" points="907.5,-164.5 907.5,-200.5 1104,-200.5 1104,-164.5 907.5,-164.5"/>
<text text-anchor="middle" x="940.62" y="-177.7" font-family="Times New Roman,serif" font-size="14.00">unnamed</text>
<polyline fill="none" stroke="black" points="973.75,-165 973.75,-200.5"/>
<text text-anchor="middle" x="998.25" y="-177.7" font-family="Times New Roman,serif" font-size="14.00">data 2</text>
<polyline fill="none" stroke="black" points="1022.75,-165 1022.75,-200.5"/>
<text text-anchor="middle" x="1063.38" y="-177.7" font-family="Times New Roman,serif" font-size="14.00">grad 0.2203</text>
</g>
<!-- 240&#45;&gt;260* -->
<g id="edge18" class="edge">
<title>240&#45;&gt;260*</title>
<path fill="none" stroke="black" d="M1104.43,-165.33C1113.13,-163.8 1121.53,-162.32 1129.18,-160.97"/>
<polygon fill="black" stroke="black" points="1129.79,-164.42 1139.03,-159.24 1128.58,-157.53 1129.79,-164.42"/>
</g>
<!-- 220 -->
<g id="node13" class="node">
<title>220</title>
<polygon fill="none" stroke="black" points="924,-109.5 924,-145.5 1087.5,-145.5 1087.5,-109.5 924,-109.5"/>
<text text-anchor="middle" x="935.38" y="-122.7" font-family="Times New Roman,serif" font-size="14.00">n</text>
<polyline fill="none" stroke="black" points="946.75,-110 946.75,-145.5"/>
<text text-anchor="middle" x="986.62" y="-122.7" font-family="Times New Roman,serif" font-size="14.00">data 0.8814</text>
<polyline fill="none" stroke="black" points="1026.5,-110 1026.5,-145.5"/>
<text text-anchor="middle" x="1057" y="-122.7" font-family="Times New Roman,serif" font-size="14.00">grad 0.5</text>
</g>
<!-- 220&#45;&gt;260* -->
<g id="edge17" class="edge">
<title>220&#45;&gt;260*</title>
<path fill="none" stroke="black" d="M1087.77,-141.24C1102.33,-143.71 1116.83,-146.16 1129.31,-148.28"/>
<polygon fill="black" stroke="black" points="1128.67,-151.72 1139.11,-149.94 1129.84,-144.82 1128.67,-151.72"/>
</g>
<!-- 220+ -->
<g id="node14" class="node">
<title>220+</title>
<ellipse fill="none" stroke="black" cx="844.5" cy="-127.5" rx="27" ry="18"/>
<text text-anchor="middle" x="844.5" y="-122.45" font-family="Times New Roman,serif" font-size="14.00">+</text>
</g>
<!-- 220+&#45;&gt;220 -->
<g id="edge6" class="edge">
<title>220+&#45;&gt;220</title>
<path fill="none" stroke="black" d="M871.8,-127.5C883.27,-127.5 897.48,-127.5 912.3,-127.5"/>
<polygon fill="black" stroke="black" points="912.2,-131 922.2,-127.5 912.2,-124 912.2,-131"/>
</g>
<!-- 200 -->
<g id="node15" class="node">
<title>200</title>
<polygon fill="none" stroke="black" points="599.25,-137.5 599.25,-173.5 762.75,-173.5 762.75,-137.5 599.25,-137.5"/>
<text text-anchor="middle" x="610.62" y="-150.7" font-family="Times New Roman,serif" font-size="14.00">b</text>
<polyline fill="none" stroke="black" points="622,-138 622,-173.5"/>
<text text-anchor="middle" x="661.88" y="-150.7" font-family="Times New Roman,serif" font-size="14.00">data 6.8814</text>
<polyline fill="none" stroke="black" points="701.75,-138 701.75,-173.5"/>
<text text-anchor="middle" x="732.25" y="-150.7" font-family="Times New Roman,serif" font-size="14.00">grad 0.5</text>
</g>
<!-- 200&#45;&gt;220+ -->
<g id="edge20" class="edge">
<title>200&#45;&gt;220+</title>
<path fill="none" stroke="black" d="M763.22,-141.42C778.5,-138.77 793.75,-136.13 806.79,-133.86"/>
<polygon fill="black" stroke="black" points="807.34,-137.32 816.6,-132.16 806.15,-130.42 807.34,-137.32"/>
</g>
<!-- 180 -->
<g id="node16" class="node">
<title>180</title>
<polygon fill="none" stroke="black" points="580.5,-82.5 580.5,-118.5 781.5,-118.5 781.5,-82.5 580.5,-82.5"/>
<text text-anchor="middle" x="618.5" y="-95.7" font-family="Times New Roman,serif" font-size="14.00">x1w1x2w2</text>
<polyline fill="none" stroke="black" points="656.5,-83 656.5,-118.5"/>
<text text-anchor="middle" x="688.5" y="-95.7" font-family="Times New Roman,serif" font-size="14.00">data &#45;6.0</text>
<polyline fill="none" stroke="black" points="720.5,-83 720.5,-118.5"/>
<text text-anchor="middle" x="751" y="-95.7" font-family="Times New Roman,serif" font-size="14.00">grad 0.5</text>
</g>
<!-- 180&#45;&gt;220+ -->
<g id="edge19" class="edge">
<title>180&#45;&gt;220+</title>
<path fill="none" stroke="black" d="M781.98,-117.22C790.62,-118.66 798.95,-120.05 806.54,-121.32"/>
<polygon fill="black" stroke="black" points="805.86,-124.76 816.3,-122.95 807.01,-117.85 805.86,-124.76"/>
</g>
<!-- 180+ -->
<g id="node17" class="node">
<title>180+</title>
<ellipse fill="none" stroke="black" cx="517.5" cy="-100.5" rx="27" ry="18"/>
<text text-anchor="middle" x="517.5" y="-95.45" font-family="Times New Roman,serif" font-size="14.00">+</text>
</g>
<!-- 180+&#45;&gt;180 -->
<g id="edge7" class="edge">
<title>180+&#45;&gt;180</title>
<path fill="none" stroke="black" d="M544.81,-100.5C551.91,-100.5 560.06,-100.5 568.77,-100.5"/>
<polygon fill="black" stroke="black" points="568.54,-104 578.54,-100.5 568.54,-97 568.54,-104"/>
</g>
<!-- 120 -->
<g id="node18" class="node">
<title>120</title>
<polygon fill="none" stroke="black" points="285.75,-110.5 285.75,-146.5 452.25,-146.5 452.25,-110.5 285.75,-110.5"/>
<text text-anchor="middle" x="308.75" y="-123.7" font-family="Times New Roman,serif" font-size="14.00">x2w2</text>
<polyline fill="none" stroke="black" points="331.75,-111 331.75,-146.5"/>
<text text-anchor="middle" x="361.5" y="-123.7" font-family="Times New Roman,serif" font-size="14.00">data 0.0</text>
<polyline fill="none" stroke="black" points="391.25,-111 391.25,-146.5"/>
<text text-anchor="middle" x="421.75" y="-123.7" font-family="Times New Roman,serif" font-size="14.00">grad 0.5</text>
</g>
<!-- 120&#45;&gt;180+ -->
<g id="edge22" class="edge">
<title>120&#45;&gt;180+</title>
<path fill="none" stroke="black" d="M452.67,-112.7C462.2,-110.88 471.51,-109.1 479.95,-107.49"/>
<polygon fill="black" stroke="black" points="480.57,-110.93 489.74,-105.62 479.26,-104.06 480.57,-110.93"/>
</g>
<!-- 120* -->
<g id="node19" class="node">
<title>120*</title>
<ellipse fill="none" stroke="black" cx="220.5" cy="-128.5" rx="27" ry="18"/>
<text text-anchor="middle" x="220.5" y="-123.45" font-family="Times New Roman,serif" font-size="14.00">*</text>
</g>
<!-- 120*&#45;&gt;120 -->
<g id="edge8" class="edge">
<title>120*&#45;&gt;120</title>
<path fill="none" stroke="black" d="M247.69,-128.5C255.5,-128.5 264.55,-128.5 274.1,-128.5"/>
<polygon fill="black" stroke="black" points="274,-132 284,-128.5 274,-125 274,-132"/>
</g>
<!-- 160 -->
<g id="node20" class="node">
<title>160</title>
<polygon fill="none" stroke="black" points="2.25,-165.5 2.25,-201.5 155.25,-201.5 155.25,-165.5 2.25,-165.5"/>
<text text-anchor="middle" x="18.5" y="-178.7" font-family="Times New Roman,serif" font-size="14.00">w2</text>
<polyline fill="none" stroke="black" points="34.75,-166 34.75,-201.5"/>
<text text-anchor="middle" x="64.5" y="-178.7" font-family="Times New Roman,serif" font-size="14.00">data 1.0</text>
<polyline fill="none" stroke="black" points="94.25,-166 94.25,-201.5"/>
<text text-anchor="middle" x="124.75" y="-178.7" font-family="Times New Roman,serif" font-size="14.00">grad 0.0</text>
</g>
<!-- 160&#45;&gt;120* -->
<g id="edge24" class="edge">
<title>160&#45;&gt;120*</title>
<path fill="none" stroke="black" d="M134.77,-165.08C142.45,-162.31 150.2,-159.41 157.5,-156.5 167.38,-152.56 177.99,-147.93 187.59,-143.57"/>
<polygon fill="black" stroke="black" points="188.9,-146.82 196.52,-139.46 185.98,-140.46 188.9,-146.82"/>
</g>
<!-- 140 -->
<g id="node21" class="node">
<title>140</title>
<polygon fill="none" stroke="black" points="3.75,-110.5 3.75,-146.5 153.75,-146.5 153.75,-110.5 3.75,-110.5"/>
<text text-anchor="middle" x="18.5" y="-123.7" font-family="Times New Roman,serif" font-size="14.00">x2</text>
<polyline fill="none" stroke="black" points="33.25,-111 33.25,-146.5"/>
<text text-anchor="middle" x="63" y="-123.7" font-family="Times New Roman,serif" font-size="14.00">data 0.0</text>
<polyline fill="none" stroke="black" points="92.75,-111 92.75,-146.5"/>
<text text-anchor="middle" x="123.25" y="-123.7" font-family="Times New Roman,serif" font-size="14.00">grad 0.5</text>
</g>
<!-- 140&#45;&gt;120* -->
<g id="edge23" class="edge">
<title>140&#45;&gt;120*</title>
<path fill="none" stroke="black" d="M154.13,-128.5C163.61,-128.5 172.98,-128.5 181.53,-128.5"/>
<polygon fill="black" stroke="black" points="181.5,-132 191.5,-128.5 181.5,-125 181.5,-132"/>
</g>
<!-- 100 -->
<g id="node22" class="node">
<title>100</title>
<polygon fill="none" stroke="black" points="283.5,-55.5 283.5,-91.5 454.5,-91.5 454.5,-55.5 283.5,-55.5"/>
<text text-anchor="middle" x="306.5" y="-68.7" font-family="Times New Roman,serif" font-size="14.00">x1w1</text>
<polyline fill="none" stroke="black" points="329.5,-56 329.5,-91.5"/>
<text text-anchor="middle" x="361.5" y="-68.7" font-family="Times New Roman,serif" font-size="14.00">data &#45;6.0</text>
<polyline fill="none" stroke="black" points="393.5,-56 393.5,-91.5"/>
<text text-anchor="middle" x="424" y="-68.7" font-family="Times New Roman,serif" font-size="14.00">grad 0.5</text>
</g>
<!-- 100&#45;&gt;180+ -->
<g id="edge21" class="edge">
<title>100&#45;&gt;180+</title>
<path fill="none" stroke="black" d="M454.8,-89.13C463.54,-90.74 472.05,-92.31 479.83,-93.74"/>
<polygon fill="black" stroke="black" points="479.03,-97.15 489.5,-95.52 480.3,-90.27 479.03,-97.15"/>
</g>
<!-- 100* -->
<g id="node23" class="node">
<title>100*</title>
<ellipse fill="none" stroke="black" cx="220.5" cy="-73.5" rx="27" ry="18"/>
<text text-anchor="middle" x="220.5" y="-68.45" font-family="Times New Roman,serif" font-size="14.00">*</text>
</g>
<!-- 100*&#45;&gt;100 -->
<g id="edge9" class="edge">
<title>100*&#45;&gt;100</title>
<path fill="none" stroke="black" d="M247.69,-73.5C254.87,-73.5 263.09,-73.5 271.79,-73.5"/>
<polygon fill="black" stroke="black" points="271.51,-77 281.51,-73.5 271.51,-70 271.51,-77"/>
</g>
<!-- 80 -->
<g id="node24" class="node">
<title>80</title>
<polygon fill="none" stroke="black" points="0,-55.5 0,-91.5 157.5,-91.5 157.5,-55.5 0,-55.5"/>
<text text-anchor="middle" x="16.25" y="-68.7" font-family="Times New Roman,serif" font-size="14.00">w1</text>
<polyline fill="none" stroke="black" points="32.5,-56 32.5,-91.5"/>
<text text-anchor="middle" x="64.5" y="-68.7" font-family="Times New Roman,serif" font-size="14.00">data &#45;3.0</text>
<polyline fill="none" stroke="black" points="96.5,-56 96.5,-91.5"/>
<text text-anchor="middle" x="127" y="-68.7" font-family="Times New Roman,serif" font-size="14.00">grad 1.0</text>
</g>
<!-- 80&#45;&gt;100* -->
<g id="edge26" class="edge">
<title>80&#45;&gt;100*</title>
<path fill="none" stroke="black" d="M157.8,-73.5C166.17,-73.5 174.38,-73.5 181.94,-73.5"/>
<polygon fill="black" stroke="black" points="181.71,-77 191.71,-73.5 181.71,-70 181.71,-77"/>
</g>
<!-- 60 -->
<g id="node25" class="node">
<title>60</title>
<polygon fill="none" stroke="black" points="1.5,-0.5 1.5,-36.5 156,-36.5 156,-0.5 1.5,-0.5"/>
<text text-anchor="middle" x="16.25" y="-13.7" font-family="Times New Roman,serif" font-size="14.00">x1</text>
<polyline fill="none" stroke="black" points="31,-1 31,-36.5"/>
<text text-anchor="middle" x="60.75" y="-13.7" font-family="Times New Roman,serif" font-size="14.00">data 2.0</text>
<polyline fill="none" stroke="black" points="90.5,-1 90.5,-36.5"/>
<text text-anchor="middle" x="123.25" y="-13.7" font-family="Times New Roman,serif" font-size="14.00">grad &#45;1.5</text>
</g>
<!-- 60&#45;&gt;100* -->
<g id="edge25" class="edge">
<title>60&#45;&gt;100*</title>
<path fill="none" stroke="black" d="M132.2,-36.86C140.7,-39.99 149.37,-43.27 157.5,-46.5 167.25,-50.37 177.75,-54.83 187.28,-59"/>
<polygon fill="black" stroke="black" points="185.6,-62.08 196.17,-62.92 188.43,-55.68 185.6,-62.08"/>
</g>
<!-- 320 -->
<g id="node26" class="node">
<title>320</title>
<polygon fill="none" stroke="black" points="2190.75,-108.5 2190.75,-144.5 2418,-144.5 2418,-108.5 2190.75,-108.5"/>
<text text-anchor="middle" x="2223.88" y="-121.7" font-family="Times New Roman,serif" font-size="14.00">unnamed</text>
<polyline fill="none" stroke="black" points="2257,-109 2257,-144.5"/>
<text text-anchor="middle" x="2296.88" y="-121.7" font-family="Times New Roman,serif" font-size="14.00">data 4.8284</text>
<polyline fill="none" stroke="black" points="2336.75,-109 2336.75,-144.5"/>
<text text-anchor="middle" x="2377.38" y="-121.7" font-family="Times New Roman,serif" font-size="14.00">grad 0.1464</text>
</g>
<!-- 320&#45;&gt;400* -->
<g id="edge11" class="edge">
<title>320&#45;&gt;400*</title>
<path fill="none" stroke="black" d="M2418.42,-133.47C2513.17,-139.31 2642.77,-147.3 2705.78,-151.19"/>
<polygon fill="black" stroke="black" points="2705.4,-154.67 2715.6,-151.8 2705.83,-147.69 2705.4,-154.67"/>
</g>
<!-- 320+&#45;&gt;320 -->
<g id="edge10" class="edge">
<title>320+&#45;&gt;320</title>
<path fill="none" stroke="black" d="M1887.35,-126.5C1943.55,-126.5 2078.32,-126.5 2179.35,-126.5"/>
<polygon fill="black" stroke="black" points="2179.05,-130 2189.05,-126.5 2179.05,-123 2179.05,-130"/>
</g>
<!-- 300 -->
<g id="node28" class="node">
<title>300</title>
<polygon fill="none" stroke="black" points="1582.88,-81.5 1582.88,-117.5 1783.88,-117.5 1783.88,-81.5 1582.88,-81.5"/>
<text text-anchor="middle" x="1616" y="-94.7" font-family="Times New Roman,serif" font-size="14.00">unnamed</text>
<polyline fill="none" stroke="black" points="1649.12,-82 1649.12,-117.5"/>
<text text-anchor="middle" x="1675.88" y="-94.7" font-family="Times New Roman,serif" font-size="14.00">data &#45;1</text>
<polyline fill="none" stroke="black" points="1702.62,-82 1702.62,-117.5"/>
<text text-anchor="middle" x="1743.25" y="-94.7" font-family="Times New Roman,serif" font-size="14.00">grad 0.1464</text>
</g>
<!-- 300&#45;&gt;320+ -->
<g id="edge28" class="edge">
<title>300&#45;&gt;320+</title>
<path fill="none" stroke="black" d="M1784.18,-114.93C1797.68,-117.02 1810.77,-119.04 1822.12,-120.8"/>
<polygon fill="black" stroke="black" points="1821.36,-124.22 1831.78,-122.29 1822.43,-117.3 1821.36,-124.22"/>
</g>
</g>
</svg>
